<svg id="SvgjsSvg1001" width="288" height="288" xmlns="http://www.w3.org/2000/svg" version="1.1" xmlns:xlink="http://www.w3.org/1999/xlink" xmlns:svgjs="http://svgjs.com/svgjs"><defs id="SvgjsDefs1002"></defs><g id="SvgjsG1008"><svg xmlns="http://www.w3.org/2000/svg" width="288" height="288" fill="none" viewBox="0 0 23 23"><path stroke="#faee1c" stroke-width="1.5" d="M11.0385 2.92705L12.8035 8.35915L12.9718 8.87739H13.5168H19.2284L14.6076 12.2346L14.1667 12.5549L14.3351 13.0731L16.1001 18.5052L11.4793 15.148L11.0385 14.8277L10.5976 15.148L5.9768 18.5052L7.7418 13.0731L7.91018 12.5549L7.46934 12.2346L2.84852 8.87739H8.56017H9.10508L9.27347 8.35915L11.0385 2.92705Z" fill="#ffffff" class="color000 svgShape colorStrokeC6E209 svgStroke"></path><mask style="mask-type:alpha" id="a" width="11" height="22" x="0" y="0" maskUnits="userSpaceOnUse"><rect width="11" height="21" y=".5" fill="#faee1c" class="colorD9D9D9 svgShape"></rect></mask><g mask="url(#a)" fill="#ffffff" class="color000 svgShape"><path fill="#faee1c" d="M11.0385 0.5L13.5168 8.12739H21.5367L15.0484 12.8414L17.5267 20.4688L11.0385 15.7548L4.55022 20.4688L7.02851 12.8414L0.54026 8.12739H8.56017L11.0385 0.5Z" class="colorC6E209 svgShape"></path></g></svg></g></svg>